# xmcd CD database file generated by OrangeCD 4.3
#
# Track frame offsets:
#	150
#	19852
#	43337
#	59442
#	79533
#	99342
#	121528
#	139335
#	162409
#	181804
#	203374
#	228580
#
# Disc length: 3102 seconds
#
# Revision: 4
# Processed by: cddbd v1.4PL0 Copyright (c) Steve Scherf et al.
# Submitted via: OrangeCD 4.3
#
DISCID=950c1c0c
DTITLE=David Devant and His Spirit Wife - Shiney on the Inside
DYEAR=1999
DGENRE=Indie
TTITLE0=Radar
TTITLE1=One Track Mind
TTITLE2=Dangerous Dilettante
TTITLE3=21
TTITLE4=Sex Maniacs
TTITLE5=One Thing After Another
TTITLE6=Space Daddy
TTITLE7=Groover
TTITLE8=Shiney on the Inside
TTITLE9=Here Come The Impostors
TTITLE10=Take A Deep Breath
TTITLE11=your nearest exit..
EXTD=Vessel!
EXTT0=
EXTT1=
EXTT2=
EXTT3=
EXTT4=
EXTT5=
EXTT6=
EXTT7=
EXTT8=
EXTT9=
EXTT10=
EXTT11=
PLAYORDER=
